<mxfile host="app.diagrams.net" modified="2021-01-07T15:05:35.505Z" agent="5.0 (Windows NT 10.0; Win64; x64) AppleWebKit/537.36 (KHTML, like Gecko) Chrome/87.0.4280.88 Safari/537.36" etag="XzaorcBToPLHGe0ceMiA" version="14.1.8" type="github">
  <diagram id="-dGtl7zbjqNK4fMW1XO1" name="Page-1">
    <mxGraphModel dx="930" dy="752" grid="1" gridSize="10" guides="1" tooltips="1" connect="1" arrows="1" fold="1" page="1" pageScale="1" pageWidth="1100" pageHeight="850" math="0" shadow="0">
      <root>
        <mxCell id="oNsJFaKYWCl3K2kXIB8Z-0" />
        <mxCell id="oNsJFaKYWCl3K2kXIB8Z-1" parent="oNsJFaKYWCl3K2kXIB8Z-0" />
      </root>
    </mxGraphModel>
  </diagram>
</mxfile>
